<svg xmlns="http://www.w3.org/2000/svg" xmlns:xlink="http://www.w3.org/1999/xlink" width="126.78" height="71.498" viewBox="0 0 126.78 71.498">
  <defs>
    <clipPath id="clip-path">
      <path id="Path_42" data-name="Path 42" d="M23.252,29.644C18.511,36.05,14.028,42.1.654,42.2a.226.226,0,0,0-.219.234v.039l0,1.566a.227.227,0,0,0,.064.155.213.213,0,0,0,.159.068c24.788-.12,31.422-9.189,37.27-17.193,4.732-6.468,9.2-12.58,22.682-12.689a.224.224,0,0,0,.223-.232l0-1.349a.22.22,0,0,0-.065-.165.209.209,0,0,0-.158-.069c-24.787.121-31.464,9.131-37.357,17.08M52,29.568c-4.747,6.407-9.229,12.451-22.6,12.555a.23.23,0,0,0-.223.234l0,1.6a.228.228,0,0,0,.068.161.206.206,0,0,0,.156.068C54.2,44.065,60.827,35,66.679,27,71.415,20.523,75.884,14.412,89.37,14.3a.223.223,0,0,0,.219-.232l0-1.349a.224.224,0,0,0-.065-.165.215.215,0,0,0-.159-.069C64.57,12.609,57.891,21.619,52,29.568M88.973.163H88.93a15.01,15.01,0,0,0-3.152.35A.231.231,0,0,0,85.6.743l0,1.414a.234.234,0,0,0,.212.233,11.62,11.62,0,0,1,6.959,2.822,12.7,12.7,0,0,1,4.368,8.5l.061,1.238a12.771,12.771,0,0,1-2.741,8.006A11.818,11.818,0,0,1,78.439,25.44a.211.211,0,0,0-.267.02l-1.057.958a.241.241,0,0,0-.024.323,15.867,15.867,0,0,0,2.041,2.122,14.953,14.953,0,0,0,11.351,3.592,15.2,15.2,0,0,0,10.46-5.843,16.555,16.555,0,0,0,3.435-11.846,16.282,16.282,0,0,0-5.6-10.935A14.981,14.981,0,0,0,89,.163h-.023" transform="translate(-0.435 -0.163)" fill="none"/>
    </clipPath>
    <linearGradient id="linear-gradient" x1="-0.001" y1="1.657" x2="0.577" y2="1.642" gradientUnits="objectBoundingBox">
      <stop offset="0" stop-color="#499bd6"/>
      <stop offset="0.134" stop-color="#499bd6"/>
      <stop offset="0.796" stop-color="#316ca5"/>
      <stop offset="0.855" stop-color="#2d66a0"/>
      <stop offset="0.932" stop-color="#255592"/>
      <stop offset="0.998" stop-color="#1b4283"/>
      <stop offset="1" stop-color="#1b4283"/>
    </linearGradient>
  </defs>
  <g id="Group_9" data-name="Group 9" transform="translate(0 0)">
    <path id="SSP" d="M247.064,174.523a12.336,12.336,0,0,1,5.712,1.247l1.627-5.488c-1.744-.865-4.748-1.209-7.93-1.2-5.667.015-11.5,2.16-11.455,9.262.058,7.77,10.079,6.086,10.112,10.5.019,2.84-3.348,3.282-5.5,3.288a12.875,12.875,0,0,1-6.381-1.561l-1.59,5.608a27.371,27.371,0,0,0,8.009,1.4c6-.016,12.614-2.006,12.561-9.619-.059-8.36-10.084-6.878-10.111-10.782-.016-2.208,2.2-2.649,4.942-2.656m21.886-.057a12.341,12.341,0,0,1,5.713,1.247l1.628-5.488c-1.747-.865-4.751-1.209-7.933-1.2-5.667.015-11.5,2.16-11.453,9.262.054,7.77,10.079,6.086,10.111,10.5.022,2.84-3.347,3.283-5.5,3.288a12.878,12.878,0,0,1-6.379-1.561l-1.591,5.608a27.386,27.386,0,0,0,8.011,1.4c6-.016,12.614-2.007,12.561-9.619-.059-8.361-10.086-6.878-10.113-10.782-.016-2.208,2.2-2.649,4.944-2.656m24.152,3.823a3.451,3.451,0,0,1-3.306,2.79l-3.594.009,1.091-5.571,3.594-.01a2.165,2.165,0,0,1,2.215,2.781m-.735-8.855-10.24.027-.4,2.025a3.214,3.214,0,0,0,2.556,3.97l.6,0a4,4,0,0,0-.44.028,3.521,3.521,0,0,0,.43.024l-.6,0a5.248,5.248,0,0,0-4.11,3.979l-3.43,17.523,2.577-.007a4.947,4.947,0,0,0,4.546-3.947l1.152-5.891,3.885-.01a10.87,10.87,0,0,0,10.556-8.882c.888-4.529-1.352-8.853-7.086-8.838" transform="translate(-172.861 -126.082)" fill="#666"/>
    <g id="Group_6" data-name="Group 6" transform="translate(0 0)">
      <g id="Group_5" data-name="Group 5" transform="translate(0 0)" clip-path="url(#clip-path)">
        <rect id="Rectangle_1699" data-name="Rectangle 1699" width="104.465" height="44.371" transform="translate(-0.116 0) rotate(-0.151)" fill="url(#linear-gradient)"/>
      </g>
    </g>
  </g>
</svg>
